{
  "accessors": [
    {
      "bufferView": 2,
      "componentType": 5126,
      "count": 3154,
      "max": [
        1.8217347860336304,
        8.11800765991211,
        1.558173656463623
      ],
      "min": [
        -0.9357239007949829,
        0.3606119155883789,
        -2.8677446842193604
      ],
      "type": "VEC3"
    },
    {
      "bufferView": 2,
      "byteOffset": 37848,
      "componentType": 5126,
      "count": 3154,
      "max": [
        1.0,
        1.0,
        1.0
      ],
      "min": [
        -1.0,
        -1.0,
        -1.0
      ],
      "type": "VEC3"
    },
    {
      "bufferView": 3,
      "componentType": 5126,
      "count": 3154,
      "max": [
        1.0,
        1.0,
        1.0,
        1.0
      ],
      "min": [
        -1.0,
        -1.0,
        -1.0,
        -1.0
      ],
      "type": "VEC4"
    },
    {
      "bufferView": 1,
      "componentType": 5126,
      "count": 3154,
      "max": [
        0.9982116222381592,
        0.9959074258804321
      ],
      "min": [
        0.022483645007014275,
        0.0009951855754479766
      ],
      "type": "VEC2"
    },
    {
      "bufferView": 0,
      "componentType": 5125,
      "count": 8670,
      "type": "SCALAR"
    },
    {
      "bufferView": 2,
      "byteOffset": 75696,
      "componentType": 5126,
      "count": 1913,
      "max": [
        1.9930939674377441,
        5.509596824645996,
        2.9135427474975586
      ],
      "min": [
        -1.0158835649490356,
        0.1896650791168213,
        -3.156273126602173
      ],
      "type": "VEC3"
    },
    {
      "bufferView": 2,
      "byteOffset": 98652,
      "componentType": 5126,
      "count": 1913,
      "max": [
        1.0,
        1.0,
        1.0
      ],
      "min": [
        -1.0,
        -1.0,
        -1.0
      ],
      "type": "VEC3"
    },
    {
      "bufferView": 3,
      "byteOffset": 50464,
      "componentType": 5126,
      "count": 1913,
      "max": [
        1.0,
        1.0,
        1.0,
        1.0
      ],
      "min": [
        -1.0,
        -1.0,
        -1.0,
        1.0
      ],
      "type": "VEC4"
    },
    {
      "bufferView": 1,
      "byteOffset": 25232,
      "componentType": 5126,
      "count": 1913,
      "max": [
        0.9988181591033936,
        0.9961806535720825
      ],
      "min": [
        0.0009980110917240381,
        0.001821014448069036
      ],
      "type": "VEC2"
    },
    {
      "bufferView": 0,
      "byteOffset": 34680,
      "componentType": 5125,
      "count": 4683,
      "type": "SCALAR"
    },
    {
      "bufferView": 2,
      "byteOffset": 121608,
      "componentType": 5126,
      "count": 4023,
      "max": [
        3.2440125942230225,
        6.804709434509277,
        3.0609142780303955
      ],
      "min": [
        -1.141872763633728,
        0.3647434115409851,
        -3.386976718902588
      ],
      "type": "VEC3"
    },
    {
      "bufferView": 2,
      "byteOffset": 169884,
      "componentType": 5126,
      "count": 4023,
      "max": [
        1.0,
        1.0,
        1.0
      ],
      "min": [
        -1.0,
        -1.0,
        -1.0
      ],
      "type": "VEC3"
    },
    {
      "bufferView": 3,
      "byteOffset": 81072,
      "componentType": 5126,
      "count": 4023,
      "max": [
        1.0,
        1.0,
        1.0,
        1.0
      ],
      "min": [
        -1.0,
        -1.0,
        -1.0,
        -1.0
      ],
      "type": "VEC4"
    },
    {
      "bufferView": 1,
      "byteOffset": 40536,
      "componentType": 5126,
      "count": 4023,
      "max": [
        0.9990020990371704,
        0.9956533908843994
      ],
      "min": [
        0.0009980042232200503,
        0.0010087743867188692
      ],
      "type": "VEC2"
    },
    {
      "bufferView": 0,
      "byteOffset": 53412,
      "componentType": 5125,
      "count": 12153,
      "type": "SCALAR"
    },
    {
      "bufferView": 2,
      "byteOffset": 218160,
      "componentType": 5126,
      "count": 444,
      "max": [
        2.1752078533172607,
        2.6400749683380127,
        1.2116994857788086
      ],
      "min": [
        -0.5056918263435364,
        0.3305765390396118,
        -3.2492566108703613
      ],
      "type": "VEC3"
    },
    {
      "bufferView": 2,
      "byteOffset": 223488,
      "componentType": 5126,
      "count": 444,
      "max": [
        1.0,
        1.0,
        1.0
      ],
      "min": [
        -1.0,
        -1.0,
        -1.0
      ],
      "type": "VEC3"
    },
    {
      "bufferView": 3,
      "byteOffset": 145440,
      "componentType": 5126,
      "count": 444,
      "max": [
        1.0,
        1.0,
        1.0,
        1.0
      ],
      "min": [
        -1.0,
        -0.9929819703102112,
        -1.0,
        1.0
      ],
      "type": "VEC4"
    },
    {
      "bufferView": 1,
      "byteOffset": 72720,
      "componentType": 5126,
      "count": 444,
      "max": [
        0.9907930493354797,
        0.9837053418159485
      ],
      "min": [
        0.0009980319300666451,
        0.00390985980629921
      ],
      "type": "VEC2"
    },
    {
      "bufferView": 0,
      "byteOffset": 102024,
      "componentType": 5125,
      "count": 843,
      "type": "SCALAR"
    }
  ],
  "asset": {
    "extras": {
      "author": "Klinepeter (https://sketchfab.com/Klinepeter)",
      "license": "CC-BY-4.0 (http://creativecommons.org/licenses/by/4.0/)",
      "source": "https://sketchfab.com/3d-models/machine-e8aa8c15e1a54b8aabd4302c7d54c3ca",
      "title": "machine"
    },
    "generator": "Sketchfab-13.83.0",
    "version": "2.0"
  },
  "bufferViews": [
    {
      "buffer": 0,
      "byteLength": 105396,
      "name": "floatBufferViews",
      "target": 34963
    },
    {
      "buffer": 0,
      "byteLength": 76272,
      "byteOffset": 105396,
      "byteStride": 8,
      "name": "floatBufferViews",
      "target": 34962
    },
    {
      "buffer": 0,
      "byteLength": 228816,
      "byteOffset": 181668,
      "byteStride": 12,
      "name": "floatBufferViews",
      "target": 34962
    },
    {
      "buffer": 0,
      "byteLength": 152544,
      "byteOffset": 410484,
      "byteStride": 16,
      "name": "floatBufferViews",
      "target": 34962
    }
  ],
  "buffers": [
    {
      "byteLength": 563028,
      "uri": "scene.bin"
    }
  ],
  "images": [
    {
      "uri": "textures/lambert1_baseColor.png"
    },
    {
      "uri": "textures/lambert1_metallicRoughness.png"
    },
    {
      "uri": "textures/lambert1_normal.png"
    }
  ],
  "materials": [
    {
      "doubleSided": true,
      "name": "lambert1",
      "normalTexture": {
        "index": 2
      },
      "pbrMetallicRoughness": {
        "baseColorTexture": {
          "index": 0
        },
        "metallicRoughnessTexture": {
          "index": 1
        }
      }
    }
  ],
  "meshes": [
    {
      "name": "machin1_low_lambert1_0",
      "primitives": [
        {
          "attributes": {
            "NORMAL": 1,
            "POSITION": 0,
            "TANGENT": 2,
            "TEXCOORD_0": 3
          },
          "indices": 4,
          "material": 0,
          "mode": 4
        }
      ]
    },
    {
      "name": "machin2_low_lambert1_0",
      "primitives": [
        {
          "attributes": {
            "NORMAL": 6,
            "POSITION": 5,
            "TANGENT": 7,
            "TEXCOORD_0": 8
          },
          "indices": 9,
          "material": 0,
          "mode": 4
        }
      ]
    },
    {
      "name": "machin3_low_lambert1_0",
      "primitives": [
        {
          "attributes": {
            "NORMAL": 11,
            "POSITION": 10,
            "TANGENT": 12,
            "TEXCOORD_0": 13
          },
          "indices": 14,
          "material": 0,
          "mode": 4
        }
      ]
    },
    {
      "name": "machin4_low_lambert1_0",
      "primitives": [
        {
          "attributes": {
            "NORMAL": 16,
            "POSITION": 15,
            "TANGENT": 17,
            "TEXCOORD_0": 18
          },
          "indices": 19,
          "material": 0,
          "mode": 4
        }
      ]
    }
  ],
  "nodes": [
    {
      "children": [
        1
      ],
      "matrix": [
        1.0,
        0.0,
        0.0,
        0.0,
        0.0,
        2.220446049250313e-16,
        -1.0,
        0.0,
        0.0,
        1.0,
        2.220446049250313e-16,
        0.0,
        0.0,
        0.0,
        0.0,
        1.0
      ],
      "name": "Sketchfab_model"
    },
    {
      "children": [
        2
      ],
      "matrix": [
        0.009999999776482582,
        0.0,
        0.0,
        0.0,
        0.0,
        0.0,
        0.009999999776482582,
        0.0,
        0.0,
        -0.009999999776482582,
        0.0,
        0.0,
        0.0,
        0.0,
        0.0,
        1.0
      ],
      "name": "c9864ca0974a4b2aa8f21b0668c0e736.fbx"
    },
    {
      "children": [
        3,
        5,
        7,
        9
      ],
      "name": "RootNode"
    },
    {
      "children": [
        4
      ],
      "name": "machin1_low"
    },
    {
      "mesh": 0,
      "name": "machin1_low_lambert1_0"
    },
    {
      "children": [
        6
      ],
      "name": "machin2_low"
    },
    {
      "mesh": 1,
      "name": "machin2_low_lambert1_0"
    },
    {
      "children": [
        8
      ],
      "name": "machin3_low"
    },
    {
      "mesh": 2,
      "name": "machin3_low_lambert1_0"
    },
    {
      "children": [
        10
      ],
      "name": "machin4_low"
    },
    {
      "mesh": 3,
      "name": "machin4_low_lambert1_0"
    }
  ],
  "samplers": [
    {
      "magFilter": 9729,
      "minFilter": 9987,
      "wrapS": 10497,
      "wrapT": 10497
    }
  ],
  "scene": 0,
  "scenes": [
    {
      "name": "Sketchfab_Scene",
      "nodes": [
        0
      ]
    }
  ],
  "textures": [
    {
      "sampler": 0,
      "source": 0
    },
    {
      "sampler": 0,
      "source": 1
    },
    {
      "sampler": 0,
      "source": 2
    }
  ]
}
